Coordinates
version=1
nRows=14
nColumns=24
inDegrees=yes

Units are S.I. units (second, meters, Newtons, ...)
Angles are in degrees.

endheader
time	pelvis_tilt	pelvis_list	pelvis_rotation	pelvis_tx	pelvis_ty	pelvis_tz	hip_flexion_r	hip_adduction_r	hip_rotation_r	knee_angle_r	ankle_angle_r	subtalar_angle_r	mtp_angle_r	hip_flexion_l	hip_adduction_l	hip_rotation_l	knee_angle_l	ankle_angle_l	subtalar_angle_l	mtp_angle_l	lumbar_extension	lumbar_bending	lumbar_rotation
      0.41700000	     -2.83103183	      0.96293838	      4.05617867	     -0.72051702	      0.90392839	      0.29981533	     30.40188102	     -0.93600232	     -7.08496702	    -18.69473680	     -1.47719326	     -0.08699215	      0.01690304	    -15.10211154	      2.15751711	      5.25464568	     -2.57964952	     10.61685667	     -8.33512151	      0.65184912	     -8.93660140	     -2.20710685	    -10.83188540
      0.42116667	     -2.95304378	      1.02189851	      4.18051268	     -0.71475523	      0.90247229	      0.30003907	     30.49191321	     -0.95230575	     -6.85650107	    -18.53244246	     -1.46224881	     -0.28624985	      0.05047403	    -15.13161272	      2.15389954	      5.41312796	     -3.07887407	     10.85289570	     -8.24790315	      0.82332055	     -8.76467463	     -2.27186560	    -10.78256230
      0.42533333	     -3.04324403	      1.04274959	      4.30743814	     -0.70893534	      0.90111964	      0.30028539	     30.52303879	     -0.92649753	     -6.66407251	    -18.41880115	     -1.48468352	     -0.49897426	      0.09463916	    -15.15274670	      2.10210850	      5.47221895	     -3.66609751	     11.15760302	     -8.01118919	      1.05421710	     -8.61736891	     -2.28914936	    -10.85703067
      0.42950000	     -3.11751976	      1.04895511	      4.40600940	     -0.70308716	      0.89980426	      0.30057916	     30.55362628	     -0.87116514	     -6.46411554	    -18.43163957	     -1.48256889	     -0.73430956	      0.18141418	    -15.16483443	      2.03935679	      5.43860284	     -4.31248068	     11.46921670	     -7.69800641	      1.47573938	     -8.51231720	     -2.25527983	    -10.89660358
      0.43366667	     -3.23980945	      1.06255505	      4.52703861	     -0.69722583	      0.89849162	      0.30085250	     30.62312907	     -0.83596717	     -6.29061295	    -18.50643541	     -1.55701012	     -1.00639318	      0.22512330	    -15.12420045	      1.98746506	      5.57218919	     -4.96012580	     11.68055670	     -7.59011992	      1.68669676	     -8.31674250	     -2.27625962	    -10.89735539
      0.43783333	     -3.35935906	      1.05965198	      4.62920678	     -0.69133585	      0.89722121	      0.30118309	     30.70321490	     -0.77054050	     -6.11683019	    -18.69384832	     -1.63264621	     -1.34268656	      0.28608135	    -15.04257335	      1.91837539	      5.58562373	     -5.69427601	     11.90971089	     -7.34196384	      1.95237024	     -8.13686428	     -2.25515750	    -10.89858712
      0.44200000	     -3.42989281	      1.02797955	      4.71903595	     -0.68540619	      0.89606336	      0.30154889	     30.72808914	     -0.66598095	     -5.96488524	    -18.95521263	     -1.68598635	     -1.67011117	      0.47838259	    -14.96937264	      1.81022038	      5.47755218	     -6.52287652	     12.21330073	     -6.86794770	      2.70597838	     -8.02115739	     -2.19786854	    -10.87561887
      0.44616667	     -3.56379516	      1.00950901	      4.78745265	     -0.67945003	      0.89485544	      0.30196523	     30.84894987	     -0.56641749	     -5.79955081	    -19.34418513	     -1.75907756	     -2.09058959	      0.76487835	    -14.82131664	      1.73046133	      5.41972431	     -7.35906447	     12.39049172	     -6.57374080	      3.78917955	     -7.80627367	     -2.15263354	    -10.82567625
      0.45033333	     -3.70714243	      1.00090232	      4.87640404	     -0.67351367	      0.89372742	      0.30234227	     30.97585294	     -0.48991177	     -5.65918238	    -19.79376043	     -1.82092320	     -2.45558524	      0.79983476	    -14.66302404	      1.67358279	      5.58338914	     -8.19451987	     12.44042758	     -6.63096373	      3.92840382	     -7.60391991	     -2.13592704	    -10.76624300
      0.45450000	     -3.85562323	      0.98717575	      4.93697475	     -0.66754865	      0.89262744	      0.30279563	     31.12883124	     -0.39103925	     -5.50624302	    -20.34137049	     -1.85872680	     -2.88079080	      0.85072939	    -14.44703425	      1.61140902	      5.59353857	     -9.13709278	     12.51301091	     -6.47710900	      4.11567125	     -7.37813474	     -2.11050691	    -10.68700287
      0.45866667	     -3.94969778	      0.91561195	      4.98572943	     -0.66150748	      0.89167402	      0.30329941	     31.20468188	     -0.22282243	     -5.39093001	    -20.90519945	     -1.84889655	     -3.28179244	      1.04391137	    -14.21757692	      1.46524472	      5.35139335	    -10.22014339	     12.63195337	     -5.93710221	      4.80319516	     -7.19413279	     -2.01563808	    -10.56399704
      0.46283333	     -4.06860240	      0.87685033	      5.01188934	     -0.65549356	      0.89071437	      0.30383738	     31.36060164	     -0.08666668	     -5.28652227	    -21.61834810	     -1.83513478	     -3.69191137	      1.50819568	    -13.95504657	      1.37115449	      5.21017044	    -11.31715339	     12.70046507	     -5.61204852	      6.57485794	     -6.99386761	     -1.95299044	    -10.40869998
      0.46700000	     -4.20105521	      0.85785433	      5.04472770	     -0.64949182	      0.88986443	      0.30435234	     31.51194470	      0.03106202	     -5.13494217	    -22.33614796	     -1.75184506	     -4.10132306	      1.54189608	    -13.69009171	      1.32324287	      5.30870176	    -12.37496077	     12.51531887	     -5.73275450	      6.72047353	     -6.79208645	     -1.92153698	    -10.32304359
      0.47116667	     -4.31367591	      0.80427229	      5.06309546	     -0.64345105	      0.88908287	      0.30492004	     31.65320878	      0.18414498	     -5.04407393	    -23.10577633	     -1.64514731	     -4.45632589	      2.25999564	    -13.36464273	      1.21899795	      5.17107212	    -13.59035886	     12.36062616	     -5.54516451	     10.39654337	     -6.59448275	     -1.85278907	    -10.16481076
